<svg id="Layer_1" data-name="Layer 1" xmlns="http://www.w3.org/2000/svg" viewBox="0 0 9 6.8"><defs><style>.cls-1{fill:#72ccdb;}</style></defs><title>favicon</title><path d="M7,5a1.21,1.21,0,1,0,.11.49A1.21,1.21,0,0,0,7,5Z"/><path class="cls-1" d="M8.66,4A1.17,1.17,0,0,0,8,3.24,5,5,0,0,0,6.31,3S5.52,2.29,4.9,1.69a2.87,2.87,0,0,0-2-.83H1.6l-.47.83H3.45C4,1.69,5.06,3,5.06,3H1.12l-1,2.06H4.45A1.6,1.6,0,0,1,5.93,4,1.59,1.59,0,0,1,7.4,5.07H8.76A.89.89,0,0,0,8.66,4Z"/><path d="M2.53.73H1.67L1.79.24A.22.22,0,0,1,2,.06h.17a.26.26,0,0,1,.25.22Z"/></svg>